<svg id="Capa_1" data-name="Capa 1" xmlns="http://www.w3.org/2000/svg" viewBox="0 0 512 512"><defs><style>.cls-1{fill:#5bf4c2;}</style></defs><title>1Монтажная область 1</title><path class="cls-1" d="M396.8,141.33c-30.72,0-59.73,11.95-80.53,32.75L256,227.41l-.11-.1-32.32,28.48.22.21-57.5,51a72.07,72.07,0,0,1-51.09,21c-39.89,0-72.32-32.32-72.32-72s32.43-72,72.32-72c19.31,0,37.44,7.47,52.05,22l24.22,21.44,32.21-28.48-27-23.89a114.75,114.75,0,0,0-81.49-33.6C51.63,141.33,0,192.75,0,256S51.63,370.67,115.2,370.67A114.35,114.35,0,0,0,195.73,338L256,284.59l.11.1,32.21-28.58-.11-.11,57.5-50.88A71.71,71.71,0,0,1,396.8,184c39.89,0,72.32,32.32,72.32,72s-32.43,72-72.32,72c-19.31,0-37.44-7.47-52.05-21.87l-24.22-21.44-32.21,28.59,27,23.89a114.53,114.53,0,0,0,81.38,33.5C460.37,370.67,512,319.25,512,256S460.37,141.33,396.8,141.33Z"/></svg>